<svg width="348" height="218" viewBox="0 0 348 218" fill="none" xmlns="http://www.w3.org/2000/svg">
<path d="M175.188 165.124C155.22 187.877 125.363 199.982 95.1048 195.251C69.0258 191.174 45.8524 175.245 32.6698 152.399C4.93996 104.343 30.3415 40.7695 83.5957 25.1551C116.684 15.4537 151.635 26.3871 174.477 51.8323C183.559 61.9493 198.428 47.001 189.383 36.9261C164.231 8.90521 126.55 -3.96855 89.5006 2.19831C57.6897 7.49366 29.0576 28.2272 13.5257 56.4065C-2.77427 85.978 -4.19877 121.868 9.3072 152.735C22.2343 182.276 48.7547 205.034 79.872 213.482C119.691 224.291 162.94 210.971 190.096 180.028C199.012 169.871 184.157 154.903 175.188 165.124Z" fill="#B95A56"/>
<path d="M139.689 135.602C127.173 149.58 107.537 155.133 90.0229 147.176C75.1215 140.406 65.3522 125.233 65.3522 108.891C65.3522 92.5523 75.1215 77.3729 90.0229 70.6061C107.308 62.7561 126.786 68.0563 139.306 81.7385C148.485 91.7697 163.361 76.8296 154.212 66.8323C125.747 35.7215 73.6162 40.6692 52.5609 77.6251C32.7911 112.325 50.9845 157.489 89.0026 169.218C112.454 176.452 138.355 168.647 154.595 150.51C163.623 140.427 148.762 125.469 139.689 135.602Z" fill="#B95A56"/>
<path d="M106.981 123.521C115.062 123.521 121.612 116.97 121.612 108.89C121.612 100.809 115.062 94.2582 106.981 94.2582C98.9003 94.2582 92.3496 100.809 92.3496 108.89C92.3496 116.97 98.9003 123.521 106.981 123.521Z" fill="#B95A56"/>
<path d="M219.74 28.384V67.6585L184.33 106.422L189.736 111.358L227.06 70.4994V28.384H219.74Z" fill="#B95A56"/>
<path d="M245.072 190.187L216.717 160.223V107.426H209.397V163.138L239.754 195.217L245.072 190.187Z" fill="#B95A56"/>
<path d="M106.981 112.55H187.034H241.243L276.935 77.4084H319.133V70.0887H273.937L238.246 105.23H187.034H106.981V112.55Z" fill="#B95A56"/>
<path d="M239.37 10.949H207.429V42.8892H239.37V10.949Z" fill="#B95A56"/>
<path d="M335.103 56.3143H303.163V88.2546H335.103V56.3143Z" fill="#B95A56"/>
<path d="M258.383 176.731H226.442V208.672H258.383V176.731Z" fill="#B95A56"/>
<path d="M241.878 157C240.358 157 238.978 156.62 237.738 155.86C236.498 155.1 235.498 154.1 234.738 152.86C233.978 151.62 233.598 150.24 233.598 148.72V111.52H241.458V122.2H255.018V130.06H241.458V148.42C241.458 148.62 241.518 148.8 241.638 148.96C241.798 149.08 241.978 149.14 242.178 149.14H255.018V157H241.878ZM268.067 157C266.547 157 265.167 156.62 263.927 155.86C262.687 155.1 261.687 154.1 260.927 152.86C260.167 151.62 259.787 150.24 259.787 148.72V130.48C259.787 128.96 260.167 127.58 260.927 126.34C261.687 125.1 262.687 124.1 263.927 123.34C265.167 122.58 266.547 122.2 268.067 122.2H286.847C288.367 122.2 289.747 122.58 290.987 123.34C292.267 124.1 293.267 125.1 293.987 126.34C294.747 127.58 295.127 128.96 295.127 130.48V143.56H267.647V148.42C267.647 148.62 267.707 148.8 267.827 148.96C267.987 149.08 268.167 149.14 268.367 149.14H295.127V157H268.067ZM267.647 136.48H287.267V130.78C287.267 130.58 287.187 130.42 287.027 130.3C286.907 130.14 286.747 130.06 286.547 130.06H268.367C268.167 130.06 267.987 130.14 267.827 130.3C267.707 130.42 267.647 130.58 267.647 130.78V136.48ZM308.203 157C306.683 157 305.303 156.62 304.063 155.86C302.823 155.1 301.823 154.1 301.063 152.86C300.303 151.62 299.923 150.24 299.923 148.72V130.48C299.923 128.96 300.303 127.58 301.063 126.34C301.823 125.1 302.823 124.1 304.063 123.34C305.303 122.58 306.683 122.2 308.203 122.2H335.203V130.06H308.503C308.303 130.06 308.123 130.14 307.963 130.3C307.843 130.42 307.783 130.58 307.783 130.78V148.42C307.783 148.62 307.843 148.8 307.963 148.96C308.123 149.08 308.303 149.14 308.503 149.14H335.263V157H308.203Z" fill="#B95A56"/>
</svg>
